<svg width="14" height="17" viewBox="0 0 14 17" fill="none" xmlns="http://www.w3.org/2000/svg">
<path d="M12.3335 6.97486C12.0874 6.97486 11.8566 7.0419 11.6584 7.15869C11.5838 6.49363 11.0181 5.97529 10.3335 5.97529C10.008 5.97529 9.70881 6.09308 9.4764 6.28928C9.243 5.90176 8.81818 5.64209 8.3335 5.64209C8.091 5.64209 7.86312 5.70715 7.66684 5.82104V2.31019C7.66681 1.57513 7.06884 0.977417 6.3335 0.977417C5.59815 0.977417 5.00015 1.57513 5.00015 2.31019V11.2276C5.00015 11.3955 4.88946 11.4817 4.84193 11.511C4.7944 11.5403 4.66646 11.6005 4.51771 11.5257L2.37709 10.4558C2.18209 10.3582 1.96368 10.3068 1.74559 10.3068C0.966933 10.3068 0.333496 10.94 0.333496 11.7183V11.9727C0.333496 12.0651 0.371902 12.1533 0.439277 12.2164L4.28662 15.8057C5.09193 16.5567 6.14209 16.9706 7.24331 16.9706H9.33346C11.7228 16.9706 13.6668 15.0274 13.6668 12.6391V8.30764C13.6668 7.57258 13.0688 6.97486 12.3335 6.97486ZM13.0002 12.6391C13.0002 14.6601 11.3553 16.3042 9.3335 16.3042H7.24334C6.31168 16.3042 5.42303 15.9541 4.74171 15.3183L1.00015 11.828V11.7183C1.00015 11.3073 1.33446 10.9732 1.74559 10.9732C1.8605 10.9732 1.97606 11.0005 2.07893 11.0519L4.21956 12.1218C4.53175 12.2783 4.89565 12.261 5.19253 12.0782C5.4894 11.8946 5.66681 11.5767 5.66681 11.2276V2.31019C5.66681 1.94285 5.96596 1.64382 6.33346 1.64382C6.70096 1.64382 7.00012 1.94285 7.00012 2.31019V7.30806C7.00012 7.49224 7.14921 7.64127 7.33346 7.64127C7.51771 7.64127 7.66681 7.49224 7.66681 7.30806V6.97486C7.66681 6.60752 7.96596 6.30849 8.33346 6.30849C8.70096 6.30849 9.00012 6.60752 9.00012 6.97486V7.30806C9.00012 7.30872 9.00012 7.30938 9.00012 7.31003V7.31035C9.00143 7.4932 9.15018 7.64127 9.33346 7.64127C9.51771 7.64127 9.66681 7.49224 9.66681 7.30806V7.30285C9.6694 6.9381 9.96825 6.64166 10.3335 6.64166C10.701 6.64166 11.0001 6.94069 11.0001 7.30803V8.30761C11.0001 8.49178 11.1492 8.64081 11.3335 8.64081C11.5177 8.64081 11.6668 8.49178 11.6668 8.30761C11.6668 7.94026 11.966 7.64123 12.3335 7.64123C12.701 7.64123 13.0002 7.94026 13.0002 8.30764V12.6391Z" fill="black"/>
</svg>
